HIERARCHY
ROOT Hips
{
  OFFSET 0 89.5177 0.535
  CHANNELS 6 Xposition Yposition Zposition Zrotation Xrotation Yrotation
  JOINT Spine
  {
    OFFSET 12.0259 -0.162855 1.69034e-005
    CHANNELS 3 Zrotation Xrotation Yrotation
    JOINT Spine1
    {
      OFFSET 15.3169 -0.0121922 0
      CHANNELS 3 Zrotation Xrotation Yrotation
      JOINT Spine2
      {
        OFFSET 15.3176 -0.0121908 0
        CHANNELS 3 Zrotation Xrotation Yrotation
        JOINT Neck
        {
          OFFSET 19.9142 1.56338 0
          CHANNELS 3 Zrotation Xrotation Yrotation
          JOINT Head
          {
            OFFSET 6.92651 0 0
            CHANNELS 3 Zrotation Xrotation Yrotation
            End Site
            {
              OFFSET 20.7666 0 0
            }
          }
          JOINT LeftShoulder
          {
            OFFSET -6.20654 0.708824 7.28219
            CHANNELS 3 Zrotation Xrotation Yrotation
            JOINT LeftArm
            {
              OFFSET 14.108 0 -1.52588e-005
              CHANNELS 3 Zrotation Xrotation Yrotation
              JOINT LeftForeArm
              {
                OFFSET 28.5802 0 0
                CHANNELS 3 Zrotation Xrotation Yrotation
                JOINT LeftHand
                {
                  OFFSET 27.092 0 0
                  CHANNELS 3 Zrotation Xrotation Yrotation
                  End Site
                  {
                    OFFSET 9.55928 -0.186424 0.145352
                  }
                }
              }
            }
          }
          JOINT RightShoulder
          {
            OFFSET -6.20654 0.708866 -7.28218
            CHANNELS 3 Zrotation Xrotation Yrotation
            JOINT RightArm
            {
              OFFSET 14.108 0 1.52588e-005
              CHANNELS 3 Zrotation Xrotation Yrotation
              JOINT RightForeArm
              {
                OFFSET 28.5802 0 0
                CHANNELS 3 Zrotation Xrotation Yrotation
                JOINT RightHand
                {
                  OFFSET 27.092 0 0
                  CHANNELS 3 Zrotation Xrotation Yrotation
                  End Site
                  {
                    OFFSET 9.55929 -0.186417 -0.145354
                  }
                }
              }
            }
          }
        }
      }
    }
  }
  JOINT LeftUpLeg
  {
    OFFSET 0.005 -0.535 8.837
    CHANNELS 3 Zrotation Xrotation Yrotation
    JOINT LeftLeg
    {
      OFFSET 39.9035 0 0
      CHANNELS 3 Zrotation Xrotation Yrotation
      JOINT LeftFoot
      {
        OFFSET 39.6689 0 0
        CHANNELS 3 Zrotation Xrotation Yrotation
        JOINT LeftToe
        {
          OFFSET 10.1624 13.6296 0
          CHANNELS 3 Zrotation Xrotation Yrotation
          End Site
          {
            OFFSET 8.38147 0 0
          }
        }
      }
    }
  }
  JOINT RightUpLeg
  {
    OFFSET 0.005 -0.535 -8.837
    CHANNELS 3 Zrotation Xrotation Yrotation
    JOINT RightLeg
    {
      OFFSET 39.9035 0 0
      CHANNELS 3 Zrotation Xrotation Yrotation
      JOINT RightFoot
      {
        OFFSET 39.6689 0 0
        CHANNELS 3 Zrotation Xrotation Yrotation
        JOINT RightToe
        {
          OFFSET 10.1624 13.6296 0
          CHANNELS 3 Zrotation Xrotation Yrotation
          End Site
          {
            OFFSET 8.38147 0 0
          }
        }
      }
    }
  }
}
MOTION
Frames:	10
Frame Time:	0.0333333
258.385 89.5493 13.7647 178.613 -82.48 88.3356 -1.3423 -0.123464 -0.71983 -2.68605 -0.229558 -1.44217 -2.68605 -0.229558 -1.44218 -8.30728e-012 -9.0191e-006 -5.27751e-005 7.00449 5.8353 -2.72275 177.922 -12.9043 -99.2299 -13.5615 -52.9587 3.94286 -4.1067e-006 1.27222e-014 -3.97569e-016 -39.673 -22.0883 -25.8587 178.584 7.09997 101.311 71.6073 65.9284 -79.7166 -1.97057 7.95139e-016 -4.96962e-017 -34.6391 11.5441 17.1277 -9.4596 4.10081 -174.211 -15.481 1.59028e-015 -0 15.5885 6.15556 -12.8373 90 1.12438e-015 3.97569e-016 -9.09134 -3.49961 174.97 -15.0857 3.97569e-016 1.98785e-016 11.8794 -2.94862 6.2472 90 1.27346e-016 -0 
258.396 89.5487 13.7767 178.808 -82.4922 88.5236 -1.33288 -0.120865 -0.718362 -2.66717 -0.224515 -1.43916 -2.66717 -0.224515 -1.43917 -8.30768e-012 -9.0191e-006 -5.27751e-005 6.84355 5.79873 -2.75518 177.926 -12.8987 -99.2166 -13.56 -53.0741 3.92012 -4.11546e-006 -1.27222e-014 -1.19271e-015 -39.6177 -22.03 -25.748 178.579 7.1029 101.341 71.6892 65.91 -79.7841 -2.02735 -2.38542e-015 1.98785e-016 -34.6585 11.5223 17.1239 -9.47074 4.11584 -174.195 -15.5137 7.95139e-016 -5.96354e-016 15.5948 6.14918 -12.824 90 3.16192e-015 3.97569e-016 -9.09773 -3.47891 174.985 -15.0996 7.95139e-016 -1.19271e-015 11.8772 -2.95263 6.25515 90 1.64619e-016 -0 
258.407 89.5478 13.7899 178.952 -82.4879 88.6547 -1.32885 -0.116894 -0.719796 -2.65905 -0.216613 -1.44008 -2.65905 -0.216613 -1.44009 -8.30728e-012 -9.0191e-006 -5.27751e-005 6.72532 5.81378 -2.77157 177.925 -12.9194 -99.2055 -13.5945 -52.8749 3.91926 -4.12489e-006 3.18055e-015 3.97569e-016 -39.6527 -22.1579 -25.8592 178.584 7.0801 101.342 71.7932 65.918 -79.8098 -2.02618 -7.95139e-016 -0 -34.6683 11.4668 17.0983 -9.49303 4.11691 -174.176 -15.532 -7.95139e-016 -1.59028e-015 15.5878 6.141 -12.8067 90 -4.42296e-015 -3.97569e-016 -9.10495 -3.47974 175.004 -15.082 -3.97569e-016 -9.93923e-016 11.8766 -2.96148 6.27301 90 -6.21202e-018 -9.93923e-017 
258.42 89.5469 13.805 179.14 -82.4816 88.8314 -1.3215 -0.115751 -0.72324 -2.64423 -0.208582 -1.44258 -2.64423 -0.208582 -1.44259 -8.30768e-012 -9.0191e-006 -5.27751e-005 6.63369 5.91869 -2.75824 177.927 -12.9179 -99.1978 -13.5848 -52.8692 3.93157 -4.13502e-006 -3.18055e-015 -0 -39.6749 -22.1594 -25.8475 178.589 7.05013 101.349 71.853 65.9058 -79.7868 -2.0332 7.95139e-016 1.98785e-016 -34.6088 11.4185 17.1032 -9.52663 4.13472 -174.152 -15.5667 -1.59028e-015 1.59028e-015 15.594 6.14439 -12.8137 90 -4.28629e-016 7.95139e-016 -9.13185 -3.51352 175.018 -15.0908 1.19271e-015 -1.98785e-016 11.91 -2.99212 6.33513 90 5.00068e-016 9.93923e-017 
258.432 89.546 13.8223 179.139 -82.4662 88.8316 -1.30872 -0.114862 -0.727409 -2.61871 -0.208607 -1.45328 -2.61871 -0.208607 -1.45329 -8.30768e-012 -9.0191e-006 -5.27751e-005 6.4861 6.05109 -2.74967 177.93 -12.8711 -99.2161 -13.4056 -52.944 4.02422 -4.14588e-006 3.18055e-015 -0 -39.6547 -22.1377 -25.8143 178.588 7.05022 101.353 72.043 65.8953 -79.9219 -2.03016 1.59028e-015 9.93923e-017 -34.6352 11.4096 17.1593 -9.57051 4.16574 -174.134 -15.596 -7.95139e-016 -0 15.6287 6.17094 -12.8693 90 -5.09386e-016 7.95139e-016 -9.18705 -3.55174 175.016 -15.1465 -3.97569e-016 9.93923e-016 11.9725 -3.02155 6.3951 90 5.5287e-016 -0 
258.436 89.545 13.8386 179.083 -82.4556 88.7738 -1.29551 -0.114121 -0.731018 -2.59253 -0.21929 -1.46434 -2.59253 -0.219289 -1.46435 -8.30788e-012 -9.0191e-006 -5.27751e-005 6.30588 6.13878 -2.71531 177.941 -12.8629 -99.1749 -13.4591 -52.8517 3.91689 -4.15748e-006 6.36111e-015 -3.97569e-016 -39.6687 -22.1231 -25.8644 178.593 7.0526 101.31 71.9937 65.9167 -79.8473 -2.0164 -1.59028e-015 1.98785e-016 -34.6896 11.3843 17.1472 -9.58466 4.13302 -174.143 -15.5817 -7.95139e-016 -1.98785e-015 15.5996 6.14764 -12.8204 90 1.85739e-015 1.19271e-015 -9.21855 -3.51515 175.022 -15.1729 -7.95139e-016 5.96354e-016 11.9533 -2.9945 6.34004 90 9.00743e-017 -0 
258.442 89.544 13.849 179.175 -82.4311 88.8641 -1.29136 -0.113422 -0.73287 -2.58426 -0.219641 -1.46804 -2.58426 -0.219641 -1.46805 -8.30768e-012 -9.0191e-006 -5.27751e-005 6.24868 6.25665 -2.74407 177.953 -12.8699 -99.1184 -13.4662 -52.8452 3.89421 -4.16986e-006 0 3.97569e-016 -39.7176 -22.1435 -25.893 178.599 7.04089 101.283 71.819 65.898 -79.6587 -1.99616 -2.38542e-015 -0 -34.7179 11.4457 17.19 -9.60496 4.15192 -174.129 -15.5603 1.59028e-015 3.97569e-016 15.5891 6.16066 -12.8476 90 -1.05604e-016 -3.97569e-016 -9.23615 -3.4988 175.035 -15.1451 7.95139e-016 -9.93923e-016 11.933 -2.98923 6.32946 90 2.60905e-016 -2.98177e-016 
258.449 89.543 13.8511 179.343 -82.4013 89.0324 -1.29141 -0.112661 -0.734748 -2.59057 -0.208319 -1.48121 -2.59057 -0.208319 -1.48122 -8.30808e-012 -9.0191e-006 -5.27751e-005 6.28038 6.48093 -2.80016 177.944 -12.9066 -99.132 -13.4451 -53.0528 4.00989 -4.18303e-006 0 -0 -39.6808 -22.1268 -25.8295 178.602 7.0528 101.238 71.968 65.9162 -79.7968 -1.9625 1.59028e-015 -9.93923e-017 -34.6624 11.466 17.1713 -9.61991 4.16777 -174.127 -15.5337 1.59028e-015 -1.39149e-015 15.574 6.14749 -12.82 90 5.15598e-016 -1.19271e-015 -9.25614 -3.48826 175.041 -15.1209 2.38542e-015 7.95139e-016 11.9361 -2.99565 6.34243 90 -1.89467e-016 9.93923e-017 
258.459 89.5423 13.8434 179.467 -82.3949 89.1342 -1.29157 -0.111731 -0.736782 -2.58106 -0.206336 -1.47917 -2.58106 -0.206336 -1.47918 -8.30688e-012 -9.0191e-006 -5.27751e-005 6.28742 6.77229 -2.87496 177.934 -12.9821 -99.1245 -13.4796 -53.0926 4.09987 -4.19703e-006 -3.18055e-015 3.97569e-016 -39.673 -22.1253 -25.8378 178.6 7.08668 101.202 71.9477 65.9025 -79.8403 -2.00191 1.59028e-015 -2.98177e-016 -34.6985 11.4814 17.1657 -9.64343 4.15186 -174.103 -15.58 7.95139e-016 3.97569e-016 15.5913 6.12591 -12.7752 90 9.19379e-016 -0 -9.25272 -3.47588 175.07 -15.1114 -3.97569e-016 -0 11.9368 -2.9904 6.33181 90 -1.80149e-016 9.93923e-017 
258.463 89.5417 13.8364 179.67 -82.3918 89.3224 -1.29182 -0.10985 -0.738413 -2.56702 -0.197329 -1.4792 -2.56702 -0.197329 -1.47921 -8.30708e-012 -9.0191e-006 -5.27751e-005 6.28479 7.15267 -2.94903 177.932 -13.0326 -99.0987 -13.4615 -53.1485 4.18763 -4.21188e-006 -1.27222e-014 -7.95139e-016 -39.6961 -22.0698 -25.775 178.594 7.13485 101.177 71.8302 65.8963 -79.7984 -2.00676 7.95139e-016 9.93923e-017 -34.6887 11.4919 17.1523 -9.66408 4.1808 -174.075 -15.627 -7.95139e-016 9.93923e-016 15.6169 6.14148 -12.8077 90 -8.88319e-016 -3.97569e-016 -9.26773 -3.47464 175.085 -15.135 -3.97569e-016 9.93923e-016 11.9564 -3.01158 6.37478 90 -2.60905e-016 -0 
